PathFileType	4	(X/Y/Z)
DataRate	CameraRate	NumFrames	NumMarkers	Units	OrigDataRate	OrigDataStartFrame	OrigNumFrames	
	120.0	120.0	11	39	mm	120.0	1	142
Frame#	Time	midhip	hip_r	hip_l	knee_r	knee_l	ankle_r	ankle_l	midasis	asis_r	asis_l	psis_r	psis_l	epicondLat_r	epicondLat_l	epicondMed_r	epicondMed_l	malleolusLat_r	malleolusLat_l	malleolusMedv_r	malleolusMedv_l	heel_r	heel_l	sternalnotch	xyphoidprocess	neck	subclavicle_r	subclavicle_l	toe_r	toe_l	thighwand_r	thighwand_l	upperleg1_r	upperleg1_l	upperleg2_r	upperleg2_l	shankwand_r	shankwand_l	lowerleg1_r	lowerleg1_l
	X1	Y1	Z1	X2	Y2	Z2	X3	Y3	Z3	X4	Y4	Z4	X5	Y5	Z5	X6	Y6	Z6	X7	Y7	Z7	X8	Y8	Z8	X9	Y9	Z9	X10	Y10	Z10	X11	Y11	Z11	X12	Y12	Z12	X13	Y13	Z13	X14	Y14	Z14	X15	Y15	Z15	X16	Y16	Z16	X17	Y17	Z17	X18	Y18	Z18	X19	Y19	Z19	X20	Y20	Z20	X21	Y21	Z21	X22	Y22	Z22	X23	Y23	Z23	X24	Y24	Z24	X25	Y25	Z25	X26	Y26	Z26	X27	Y27	Z27	X28	Y28	Z28	X29	Y29	Z29	X30	Y30	Z30	X31	Y31	Z31	X32	Y32	Z32	X33	Y33	Z33	X34	Y34	Z34	X35	Y35	Z35	X36	Y36	Z36	X37	Y37	Z37	X38	Y38	Z38	X39	Y39	Z39

	1	0.00833	539.966	743.107	-264.088	531.447	744.784	-199.511	548.485	741.430	-328.665	479.943	406.563	-156.101	485.133	424.164	-353.163	511.496	66.869	-119.453	494.510	70.282	-390.802	612.343	809.387	-256.262	598.634	812.085	-152.338	626.052	806.688	-360.185	454.156	855.690	-244.681	457.255	853.814	-299.658	475.831	414.160	-101.784	483.785	428.626	-407.463	486.109	406.700	-207.985	490.468	399.841	-305.573	499.368	69.559	-84.071	484.291	73.775	-426.191	515.340	65.818	-142.006	497.815	66.501	-372.362	477.807	37.447	-143.915	437.224	41.310	-380.943	553.887	1172.102	-273.037	590.718	1093.300	-274.346	460.715	1218.791	-287.728	565.924	1171.864	-233.270	569.791	1177.190	-308.222	607.137	36.628	-84.993	595.877	38.841	-420.576	590.976	528.649	-56.936	659.440	526.205	-356.000	526.340	588.509	-98.603	598.570	597.568	-382.719	515.344	501.328	-106.646	574.317	513.378	-385.417	466.232	185.300	-21.546	490.589	205.534	-487.886	480.663	144.533	-91.989	478.712	158.378	-419.232
	2	0.01667	539.989	743.099	-264.077	531.470	744.776	-199.501	548.507	741.422	-328.654	479.942	406.563	-156.087	485.134	424.167	-353.150	511.476	66.874	-119.442	494.500	70.300	-390.799	612.365	809.380	-256.251	598.655	812.079	-152.319	626.075	806.681	-360.184	454.180	855.686	-244.673	457.267	853.801	-299.656	475.838	414.160	-101.769	483.781	428.630	-407.450	486.031	406.674	-207.892	490.762	399.717	-305.454	499.354	69.566	-84.058	484.279	73.795	-426.187	515.365	65.826	-141.991	497.795	66.521	-372.348	477.795	37.468	-143.919	437.228	41.308	-380.938	554.068	1172.101	-273.083	590.979	1093.333	-274.220	460.683	1218.768	-287.754	565.843	1171.836	-233.210	570.199	1177.236	-308.185	607.127	36.631	-84.984	595.873	38.855	-420.576	590.980	528.641	-56.921	659.431	526.222	-355.992	526.369	588.500	-98.576	598.413	597.645	-382.722	515.336	501.319	-106.590	574.335	513.398	-385.378	466.245	185.299	-21.539	490.576	205.552	-487.882	480.650	144.536	-91.955	478.717	158.389	-419.219
	3	0.02500	540.009	743.099	-264.065	531.489	744.776	-199.489	548.530	741.422	-328.642	479.938	406.566	-156.078	485.129	424.173	-353.142	511.453	66.881	-119.435	494.477	70.326	-390.800	612.381	809.385	-256.238	598.667	812.084	-152.295	626.095	806.686	-360.181	454.206	855.677	-244.665	457.276	853.795	-299.658	475.843	414.162	-101.759	483.773	428.637	-407.442	485.970	406.641	-207.780	490.752	399.767	-305.431	499.335	69.574	-84.049	484.254	73.822	-426.187	515.297	65.872	-142.008	497.759	66.545	-372.338	477.779	37.490	-143.922	437.231	41.305	-380.933	554.107	1172.131	-273.085	591.094	1093.399	-274.185	460.643	1218.738	-287.768	565.753	1171.834	-233.150	570.347	1177.320	-308.154	607.115	36.643	-84.975	595.856	38.891	-420.586	590.976	528.639	-56.907	659.417	526.258	-355.998	526.357	588.512	-98.551	598.402	597.672	-382.706	515.319	501.321	-106.527	574.325	513.466	-385.362	466.251	185.301	-21.536	490.560	205.573	-487.880	480.615	144.548	-91.898	478.667	158.438	-419.233
	4	0.03333	540.028	743.105	-264.048	531.505	744.782	-199.472	548.551	741.428	-328.625	479.933	406.571	-156.072	485.124	424.177	-353.137	511.429	66.885	-119.430	494.449	70.351	-390.801	612.392	809.399	-256.219	598.672	812.098	-152.265	626.112	806.699	-360.174	454.233	855.664	-244.658	457.281	853.796	-299.661	475.846	414.164	-101.753	483.767	428.644	-407.436	485.983	406.655	-207.751	490.637	399.877	-305.528	499.316	69.579	-84.043	484.225	73.848	-426.188	515.177	65.930	-142.034	497.716	66.575	-372.327	477.762	37.504	-143.924	437.232	41.298	-380.929	553.983	1172.178	-273.088	591.004	1093.464	-274.288	460.580	1218.723	-287.769	565.694	1171.866	-233.167	570.163	1177.392	-308.188	607.104	36.657	-84.970	595.836	38.937	-420.597	590.970	528.638	-56.893	659.413	526.297	-356.001	526.319	588.550	-98.542	598.356	597.735	-382.757	515.309	501.353	-106.509	574.275	513.580	-385.423	466.254	185.302	-21.536	490.545	205.593	-487.881	480.582	144.579	-91.877	478.597	158.497	-419.254
	5	0.04167	540.046	743.111	-264.030	531.520	744.789	-199.455	548.572	741.433	-328.606	479.931	406.574	-156.073	485.123	424.176	-353.134	511.411	66.882	-119.432	494.425	70.364	-390.802	612.402	809.413	-256.199	598.675	812.114	-152.236	626.129	806.712	-360.163	454.256	855.651	-244.653	457.281	853.800	-299.664	475.848	414.164	-101.752	483.767	428.646	-407.434	486.004	406.686	-207.779	490.503	399.993	-305.612	499.301	69.577	-84.043	484.202	73.863	-426.189	515.085	65.953	-142.056	497.688	66.589	-372.326	477.750	37.508	-143.927	437.232	41.289	-380.926	553.776	1172.208	-273.071	590.789	1093.492	-274.403	460.534	1218.706	-287.789	565.639	1171.900	-233.174	569.822	1177.418	-308.254	607.096	36.666	-84.967	595.824	38.973	-420.605	590.971	528.632	-56.886	659.423	526.321	-355.995	526.318	588.570	-98.555	598.371	597.788	-382.787	515.310	501.386	-106.527	574.241	513.654	-385.468	466.258	185.297	-21.540	490.539	205.601	-487.880	480.580	144.620	-91.898	478.531	158.539	-419.274
	6	0.05000	540.063	743.113	-264.015	531.534	744.791	-199.439	548.593	741.434	-328.590	479.934	406.572	-156.080	485.127	424.168	-353.135	511.404	66.871	-119.442	494.415	70.356	-390.802	612.415	809.420	-256.182	598.683	812.122	-152.216	626.147	806.717	-360.148	454.273	855.638	-244.650	457.278	853.807	-299.667	475.853	414.158	-101.759	483.775	428.639	-407.434	485.919	406.718	-207.796	490.480	400.002	-305.637	499.296	69.567	-84.053	484.194	73.855	-426.189	515.067	65.937	-142.059	497.683	66.574	-372.331	477.746	37.497	-143.928	437.229	41.278	-380.924	553.210	1172.186	-272.845	590.068	1093.403	-274.500	460.507	1218.692	-287.809	565.551	1171.920	-233.137	568.842	1177.312	-308.181	607.096	36.665	-84.970	595.824	38.984	-420.607	590.982	528.620	-56.888	659.450	526.317	-355.977	526.338	588.554	-98.556	598.389	597.800	-382.771	515.287	501.405	-106.534	574.241	513.654	-385.468	466.263	185.287	-21.546	490.546	205.593	-487.877	480.587	144.649	-91.901	478.513	158.545	-419.276
	7	0.05833	540.083	743.106	-264.003	531.551	744.786	-199.428	548.615	741.427	-328.578	479.948	406.562	-156.093	485.140	424.150	-353.136	511.414	66.852	-119.458	494.428	70.321	-390.797	612.434	809.414	-256.168	598.698	812.118	-152.209	626.169	806.710	-360.127	454.282	855.628	-244.648	457.273	853.812	-299.671	475.865	414.144	-101.772	483.794	428.623	-407.435	485.857	406.747	-207.823	490.544	399.893	-305.617	499.305	69.547	-84.070	484.210	73.820	-426.186	515.107	65.886	-142.045	497.713	66.537	-372.331	477.756	37.474	-143.927	437.225	41.269	-380.923	553.537	1172.205	-272.955	590.514	1093.473	-274.335	460.472	1218.690	-287.816	565.502	1171.917	-233.129	569.495	1177.385	-308.141	607.108	36.650	-84.978	595.838	38.968	-420.599	591.004	528.602	-56.893	659.501	526.276	-355.935	526.366	588.530	-98.553	598.411	597.738	-382.702	515.279	501.414	-106.545	574.275	513.580	-385.423	466.268	185.272	-21.554	490.568	205.568	-487.870	480.582	144.654	-91.897	478.568	158.484	-419.249
	8	0.06667	540.105	743.092	-263.993	531.569	744.773	-199.418	548.641	741.410	-328.567	479.970	406.547	-156.109	485.165	424.128	-353.136	511.437	66.829	-119.474	494.461	70.270	-390.786	612.458	809.396	-256.156	598.719	812.103	-152.213	626.198	806.689	-360.098	454.283	855.621	-244.647	457.271	853.813	-299.675	475.882	414.127	-101.787	483.824	428.601	-407.436	485.904	406.724	-207.880	490.646	399.758	-305.552	499.325	69.524	-84.086	484.248	73.767	-426.176	515.180	65.795	-142.036	497.773	66.487	-372.334	477.778	37.443	-143.923	437.220	41.265	-380.922	553.639	1172.131	-273.026	590.591	1093.384	-274.212	460.430	1218.676	-287.813	565.500	1171.889	-233.193	569.691	1177.261	-308.150	607.129	36.624	-84.990	595.863	38.931	-420.581	591.032	528.582	-56.896	659.580	526.203	-355.864	526.428	588.486	-98.586	598.464	597.642	-382.643	515.315	501.382	-106.585	574.346	513.452	-385.360	466.272	185.255	-21.560	490.604	205.535	-487.861	480.615	144.618	-91.920	478.648	158.385	-419.222
	9	0.07500	540.125	743.075	-263.986	531.585	744.759	-199.413	548.665	741.392	-328.560	479.994	406.537	-156.123	485.196	424.109	-353.137	511.465	66.812	-119.487	494.502	70.219	-390.774	612.482	809.375	-256.146	598.739	812.085	-152.224	626.225	806.666	-360.069	454.280	855.618	-244.649	457.274	853.811	-299.678	475.900	414.114	-101.802	483.862	428.582	-407.437	485.984	406.666	-207.932	490.776	399.630	-305.506	499.349	69.505	-84.100	484.293	73.715	-426.166	515.239	65.713	-142.039	497.819	66.438	-372.343	477.806	37.413	-143.919	437.213	41.269	-380.923	553.785	1172.071	-273.118	590.741	1093.323	-274.072	460.384	1218.649	-287.800	565.497	1171.878	-233.263	569.967	1177.158	-308.166	607.149	36.594	-85.004	595.893	38.890	-420.563	591.058	528.569	-56.898	659.671	526.123	-355.782	526.500	588.426	-98.631	598.477	597.564	-382.653	515.364	501.324	-106.629	574.425	513.338	-385.335	466.273	185.242	-21.567	490.646	205.505	-487.853	480.677	144.546	-91.965	478.718	158.311	-419.200
	10	0.08333	540.141	743.064	-263.984	531.597	744.749	-199.410	548.684	741.379	-328.557	480.017	406.536	-156.135	485.228	424.103	-353.142	511.493	66.805	-119.498	494.536	70.186	-390.768	612.500	809.361	-256.140	598.753	812.072	-152.232	626.248	806.649	-360.048	454.275	855.617	-244.654	457.282	853.808	-299.680	475.915	414.112	-101.814	483.901	428.576	-407.442	486.136	406.635	-207.997	491.581	398.847	-305.622	499.373	69.498	-84.113	484.333	73.680	-426.161	515.250	65.687	-142.045	497.855	66.403	-372.353	477.836	37.393	-143.916	437.207	41.280	-380.927	553.696	1172.020	-273.110	590.582	1093.238	-273.963	460.349	1218.641	-287.792	565.466	1171.896	-233.288	569.831	1177.023	-308.174	607.164	36.571	-85.019	595.914	38.862	-420.556	591.073	528.572	-56.897	659.753	526.062	-355.713	526.544	588.396	-98.653	598.057	597.543	-382.441	515.432	501.285	-106.667	574.510	513.231	-385.277	466.272	185.238	-21.574	490.687	205.487	-487.848	480.728	144.495	-92.006	478.793	158.266	-419.180
	11	0.09167	540.150	743.062	-263.984	531.602	744.748	-199.412	548.698	741.376	-328.557	480.035	406.544	-156.144	485.256	424.111	-353.148	511.516	66.810	-119.505	494.554	70.176	-390.767	612.508	809.360	-256.137	598.754	812.072	-152.234	626.263	806.647	-360.039	454.266	855.619	-244.660	457.295	853.804	-299.683	475.925	414.120	-101.824	483.937	428.583	-407.448	486.290	406.653	-208.051	493.582	396.798	-306.283	499.392	69.503	-84.122	484.354	73.670	-426.162	515.270	65.710	-142.051	497.879	66.403	-372.360	477.862	37.388	-143.914	437.204	41.299	-380.931	553.405	1172.020	-273.041	590.190	1093.192	-273.984	460.320	1218.666	-287.782	565.395	1171.940	-233.303	569.352	1176.952	-308.182	607.171	36.559	-85.032	595.921	38.854	-420.561	591.074	528.591	-56.893	659.811	526.035	-355.671	526.548	588.428	-98.649	596.825	597.632	-381.737	515.487	501.284	-106.689	574.579	513.142	-385.203	466.269	185.243	-21.581	490.718	205.483	-487.848	480.745	144.509	-92.012	478.837	158.269	-419.180
